<svg width="53" height="53" viewBox="0 0 53 53" fill="none" xmlns="http://www.w3.org/2000/svg">
<path d="M27.3636 24.1429C25.4 24.1429 22.34 24.7014 20 25.7857C17.66 24.685 14.6 24.1429 12.6364 24.1429C9.08545 24.1429 2 25.9171 2 29.4821V34H38V29.4821C38 25.9171 30.9145 24.1429 27.3636 24.1429ZM20.8182 31.5357H4.45455V29.4821C4.45455 28.595 8.64364 26.6071 12.6364 26.6071C16.6291 26.6071 20.8182 28.595 20.8182 29.4821V31.5357ZM35.5455 31.5357H23.2727V29.4821C23.2727 28.7264 22.9455 28.0693 22.4218 27.4779C23.8618 26.985 25.6291 26.6071 27.3636 26.6071C31.3564 26.6071 35.5455 28.595 35.5455 29.4821V31.5357ZM12.6364 22.5C15.7945 22.5 18.3636 19.9207 18.3636 16.75C18.3636 13.5793 15.7945 11 12.6364 11C9.47818 11 6.90909 13.5793 6.90909 16.75C6.90909 19.9207 9.47818 22.5 12.6364 22.5ZM12.6364 13.4643C14.4364 13.4643 15.9091 14.9429 15.9091 16.75C15.9091 18.5571 14.4364 20.0357 12.6364 20.0357C10.8364 20.0357 9.36364 18.5571 9.36364 16.75C9.36364 14.9429 10.8364 13.4643 12.6364 13.4643ZM27.3636 22.5C30.5218 22.5 33.0909 19.9207 33.0909 16.75C33.0909 13.5793 30.5218 11 27.3636 11C24.2055 11 21.6364 13.5793 21.6364 16.75C21.6364 19.9207 24.2055 22.5 27.3636 22.5ZM27.3636 13.4643C29.1636 13.4643 30.6364 14.9429 30.6364 16.75C30.6364 18.5571 29.1636 20.0357 27.3636 20.0357C25.5636 20.0357 24.0909 18.5571 24.0909 16.75C24.0909 14.9429 25.5636 13.4643 27.3636 13.4643Z" fill="#005058"/>
</svg>
