<svg width="36" height="37" viewBox="0 0 36 37" fill="none" xmlns="http://www.w3.org/2000/svg">
<path d="M16.5375 32.375V29.0604C15.2125 28.7521 14.069 28.1611 13.107 27.2875C12.144 26.4139 11.4375 25.1806 10.9875 23.5875L13.7625 22.4312C14.1375 23.6646 14.694 24.6024 15.432 25.2448C16.169 25.8872 17.1375 26.2083 18.3375 26.2083C19.3625 26.2083 20.2315 25.9709 20.9445 25.4961C21.6565 25.0202 22.0125 24.2812 22.0125 23.2792C22.0125 22.3799 21.7375 21.6666 21.1875 21.1393C20.6375 20.6131 19.3625 20.016 17.3625 19.3479C15.2125 18.6542 13.7375 17.8258 12.9375 16.8627C12.1375 15.8987 11.7375 14.7229 11.7375 13.3354C11.7375 11.6653 12.2625 10.3677 13.3125 9.44271C14.3625 8.51771 15.4375 7.99097 16.5375 7.8625V4.625H19.5375V7.8625C20.7875 8.06806 21.819 8.53672 22.632 9.2685C23.444 10.0013 24.0375 10.8944 24.4125 11.9479L21.6375 13.1812C21.3375 12.359 20.9125 11.7424 20.3625 11.3312C19.8125 10.9201 19.0625 10.7146 18.1125 10.7146C17.0125 10.7146 16.175 10.9654 15.6 11.4669C15.025 11.9674 14.7375 12.5903 14.7375 13.3354C14.7375 14.1833 15.1125 14.8514 15.8625 15.3396C16.6125 15.8278 17.9125 16.3417 19.7625 16.8812C21.4875 17.3951 22.794 18.2107 23.682 19.3279C24.569 20.4461 25.0125 21.7375 25.0125 23.2021C25.0125 25.0264 24.4875 26.4139 23.4375 27.3646C22.3875 28.3153 21.0875 28.9062 19.5375 29.1375V32.375H16.5375Z" fill="#005058"/>
</svg>
