<svg width="36" height="39" viewBox="0 0 36 39" fill="none" xmlns="http://www.w3.org/2000/svg">
<path d="M0.702532 12.5925L0.702319 12.5929C0.400473 13.1894 0.25 13.8193 0.25 14.4857V34.5429C0.25 35.7009 0.663648 36.6869 1.49893 37.5142C2.33269 38.34 3.3285 38.75 4.5 38.75H15.5V25.6286V25.3786H15.75H20.25H20.5V25.6286V38.75H31.5C32.6714 38.75 33.6679 38.3401 34.5032 37.5144L0.702532 12.5925ZM0.702532 12.5925C1.00292 11.996 1.41723 11.507 1.94692 11.1223L1.94693 11.1223M0.702532 12.5925L1.94693 11.1223M1.94693 11.1223L1.94908 11.1207M1.94693 11.1223L1.94908 11.1207M1.94908 11.1207L15.4476 1.09321C15.8405 0.810423 16.2486 0.600093 16.6721 0.460253C17.0961 0.32027 17.5384 0.25 18 0.25C18.4616 0.25 18.9039 0.32027 19.3279 0.460253C19.7514 0.600095 20.1595 0.810428 20.5524 1.09322C20.5529 1.09357 20.5534 1.09392 20.5539 1.09428L34.0509 11.1207L34.0531 11.1223M1.94908 11.1207L34.0531 11.1223M34.0531 11.1223C34.5828 11.507 34.9979 11.996 35.2998 12.5925M34.0531 11.1223L35.2998 12.5925M35.2998 12.5925C35.6002 13.1891 35.75 13.8192 35.75 14.4857V34.5429C35.75 35.7009 35.3371 36.6868 34.5035 37.5141L35.2998 12.5925ZM4.25 34.5429V34.7929H4.5H11.25H11.5V34.5429V21.4214H24.5V34.5429V34.7929H24.75H31.5H31.75V34.5429V14.4857V14.36L31.6491 14.285L18.1491 4.25646L18 4.14571L17.8509 4.25646L4.35092 14.285L4.25 14.36V14.4857V34.5429Z" fill="#005058" stroke="#005058" stroke-width="0.5"/>
</svg>
