<svg width="32" height="32" viewBox="0 0 32 32" fill="none" xmlns="http://www.w3.org/2000/svg">
<path d="M16 16.0001C16.7333 16.0001 17.3613 15.7387 17.884 15.2161C18.4058 14.6943 18.6666 14.0667 18.6666 13.3334C18.6666 12.6001 18.4058 11.9721 17.884 11.4494C17.3613 10.9276 16.7333 10.6667 16 10.6667C15.2666 10.6667 14.6391 10.9276 14.1173 11.4494C13.5946 11.9721 13.3333 12.6001 13.3333 13.3334C13.3333 14.0667 13.5946 14.6943 14.1173 15.2161C14.6391 15.7387 15.2666 16.0001 16 16.0001ZM16 25.8001C18.7111 23.3112 20.7222 21.0499 22.0333 19.0161C23.3444 16.9832 24 15.1779 24 13.6001C24 11.1779 23.2275 9.1943 21.6826 7.64941C20.1386 6.10541 18.2444 5.33341 16 5.33341C13.7555 5.33341 11.8609 6.10541 10.316 7.64941C8.77198 9.1943 7.99998 11.1779 7.99998 13.6001C7.99998 15.1779 8.65554 16.9832 9.96665 19.0161C11.2778 21.0499 13.2889 23.3112 16 25.8001ZM16 29.3334C12.4222 26.289 9.7502 23.461 7.98398 20.8494C6.21687 18.2387 5.33331 15.8223 5.33331 13.6001C5.33331 10.2667 6.40576 7.61119 8.55065 5.63341C10.6946 3.65564 13.1778 2.66675 16 2.66675C18.8222 2.66675 21.3053 3.65564 23.4493 5.63341C25.5942 7.61119 26.6666 10.2667 26.6666 13.6001C26.6666 15.8223 25.7835 18.2387 24.0173 20.8494C22.2502 23.461 19.5778 26.289 16 29.3334Z" fill="#005058"/>
</svg>
