<svg width="47" height="46" viewBox="0 0 47 46" fill="none" xmlns="http://www.w3.org/2000/svg">
<path d="M46.8298 25.6155C46.4773 19.9433 45.8965 18.8386 45.6772 18.4231C45.1728 17.4629 44.3659 16.8355 43.5119 16.1772C43.4636 16.1406 43.4219 16.0884 43.3901 16.0247C43.3583 15.9611 43.3372 15.8877 43.3286 15.8104C43.3199 15.7331 43.324 15.6539 43.3403 15.5792C43.3567 15.5045 43.3849 15.4363 43.4228 15.3799C43.5809 15.15 43.7025 14.8738 43.7791 14.5701C43.8556 14.2665 43.8854 13.9428 43.8664 13.6211C43.8296 13.0506 43.6445 12.5209 43.3479 12.1368C43.0514 11.7528 42.6649 11.5426 42.2652 11.5478H40.7375C40.672 11.5484 40.6066 11.5545 40.5417 11.5661C40.4971 11.5383 40.4509 11.5163 40.4036 11.5001C39.4987 8.75871 38.2599 5.00526 35.6921 3.17345C31.8836 0.458727 24.8678 0.318359 23.4968 0.318359C22.1257 0.318359 15.1099 0.458727 11.3063 3.16924C8.73854 5.00105 7.49971 8.7545 6.59483 11.4959L6.587 11.5183C6.54186 11.5274 6.49754 11.5434 6.45479 11.5661C6.38981 11.5545 6.32441 11.5484 6.25893 11.5478H4.72826C4.3286 11.5426 3.94215 11.7528 3.64557 12.1368C3.34898 12.5209 3.16392 13.0506 3.12709 13.6211C3.1097 13.942 3.14085 14.2646 3.21843 14.5666C3.29601 14.8687 3.41818 15.1433 3.57659 15.3715C3.61449 15.4279 3.64273 15.4961 3.65908 15.5708C3.67542 15.6455 3.67944 15.7247 3.67079 15.802C3.66215 15.8793 3.64109 15.9527 3.60928 16.0163C3.57747 16.08 3.53577 16.1322 3.48748 16.1688C2.63352 16.8313 1.82265 17.4587 1.32222 18.4146C1.10286 18.8357 0.523103 19.9348 0.169572 25.6071C-0.02629 28.7991 -0.0556693 32.1034 0.0980825 34.2313C0.420276 38.653 1.02451 41.3256 1.04997 41.4365C1.14269 41.84 1.31337 42.1976 1.54218 42.4676C1.771 42.7377 2.04857 42.9092 2.34266 42.9623V42.9903C2.34266 43.586 2.50775 44.1572 2.8016 44.5784C3.09545 44.9996 3.49399 45.2362 3.90956 45.2362H9.3937C9.80927 45.2362 10.2078 44.9996 10.5017 44.5784C10.7955 44.1572 10.9606 43.586 10.9606 42.9903C11.8038 42.9903 12.3904 42.7742 13.0123 42.544C13.9101 42.1972 14.8278 41.9665 15.7543 41.8548C18.7422 41.4463 21.7134 41.3059 23.4968 41.3059C25.2438 41.3059 28.3463 41.4463 31.3391 41.8548C32.2693 41.9668 33.1906 42.1984 34.0919 42.5468C34.6873 42.7657 35.2524 42.9679 36.0349 42.9889C36.0349 43.5846 36.2 44.1558 36.4938 44.577C36.7877 44.9982 37.1862 45.2348 37.6018 45.2348H43.0859C43.5015 45.2348 43.9 44.9982 44.1939 44.577C44.4877 44.1558 44.6528 43.5846 44.6528 42.9889V42.9721C44.9476 42.9201 45.226 42.749 45.4556 42.4789C45.6851 42.2087 45.8564 41.8506 45.9494 41.4463C45.9749 41.3354 46.5791 38.6628 46.9013 34.2412C47.0551 32.1118 47.0276 28.8131 46.8298 25.6155ZM9.427 13.4161C10.2104 11.0299 11.1065 8.32918 12.7018 7.19079C15.0071 5.54568 19.7852 4.80453 23.4968 4.80453C27.2083 4.80453 31.9864 5.54006 34.2917 7.19079C35.887 8.32918 36.7791 11.0313 37.5665 13.4161L37.6644 13.7207C37.7217 13.8941 37.747 14.0857 37.738 14.2771C37.7289 14.4685 37.6858 14.6534 37.6127 14.8141C37.5397 14.9749 37.4391 15.1061 37.3206 15.1953C37.2021 15.2845 37.0696 15.3287 36.9358 15.3237C33.6816 15.1974 26.8264 14.7931 23.4968 14.7931C20.1671 14.7931 13.3119 15.2072 10.0528 15.3336C9.91897 15.3386 9.7865 15.2944 9.668 15.2052C9.5495 15.116 9.44893 14.9847 9.37586 14.824C9.3028 14.6632 9.25968 14.4783 9.25064 14.2869C9.24159 14.0955 9.2669 13.904 9.32417 13.7306C9.35844 13.6267 9.39468 13.5214 9.427 13.4161V13.4161ZM10.5953 24.5937C8.91071 24.8843 7.21533 25.0277 5.51857 25.0232C4.4805 25.0232 3.41011 24.6021 3.21131 23.277C3.07519 22.3857 3.08988 21.8845 3.16332 21.3806C3.22502 20.9525 3.32295 20.6409 3.81261 20.5314C5.08571 20.2507 5.79767 20.603 7.88164 21.4831C9.26345 22.0656 10.2604 22.8419 10.8284 23.4567C11.1134 23.7599 10.9616 24.5515 10.5953 24.5937V24.5937ZM32.2753 36.1039C30.9865 36.3144 28.409 36.2372 23.5261 36.2372C18.6433 36.2372 16.0667 36.3144 14.778 36.1039C13.448 35.8919 11.7529 34.0896 12.9104 32.4838C13.6811 31.4254 15.4791 30.6337 17.8736 30.1887C20.268 29.7438 21.2816 29.515 23.5163 29.515C25.7511 29.515 26.6619 29.6553 29.1591 30.1901C31.6564 30.7249 33.5435 31.5265 34.1223 32.4852C35.178 34.2033 33.6042 35.8807 32.2753 36.1123V36.1039ZM43.7822 23.2756C43.5863 24.6063 42.5091 25.0218 41.4749 25.0218C39.7457 25.0224 38.0179 24.8789 36.3003 24.5923C36.0006 24.5515 35.8615 23.7978 36.1651 23.4553C36.7243 22.825 37.732 22.0642 39.1119 21.4817C41.1958 20.6016 42.3975 20.2493 43.4296 20.5426C43.6813 20.6142 43.8145 21.0016 43.8302 21.2445C43.8993 21.9206 43.883 22.6091 43.7822 23.277V23.2756Z" fill="#E3B21C" fill-opacity="0.99"/>
</svg>
