<svg width="197" height="49" viewBox="0 0 197 49" fill="none" xmlns="http://www.w3.org/2000/svg">
<path d="M11.375 14.43C13.965 14.43 16.2283 14.9433 18.165 15.97C20.1017 16.9967 21.595 18.4433 22.645 20.31C23.7183 22.1533 24.255 24.2883 24.255 26.715C24.255 29.1183 23.7183 31.2533 22.645 33.12C21.595 34.9867 20.09 36.4333 18.13 37.46C16.1933 38.4867 13.9417 39 11.375 39H2.17V14.43H11.375ZM10.99 33.82C13.2533 33.82 15.015 33.2017 16.275 31.965C17.535 30.7283 18.165 28.9783 18.165 26.715C18.165 24.4517 17.535 22.69 16.275 21.43C15.015 20.17 13.2533 19.54 10.99 19.54H8.155V33.82H10.99ZM33.9697 34.1H44.5397V39H27.1797V34.45L37.6797 19.33H27.1797V14.43H44.5397V18.98L33.9697 34.1Z" fill="#E3B21C" fill-opacity="0.99"/>
<path d="M106.98 29.2C106.98 27.1933 107.353 25.4317 108.1 23.915C108.87 22.3983 109.908 21.2317 111.215 20.415C112.522 19.5983 113.98 19.19 115.59 19.19C116.967 19.19 118.168 19.47 119.195 20.03C120.245 20.59 121.05 21.325 121.61 22.235V19.47H127.595V39H121.61V36.235C121.027 37.145 120.21 37.88 119.16 38.44C118.133 39 116.932 39.28 115.555 39.28C113.968 39.28 112.522 38.8717 111.215 38.055C109.908 37.215 108.87 36.0367 108.1 34.52C107.353 32.98 106.98 31.2067 106.98 29.2ZM121.61 29.235C121.61 27.7417 121.19 26.5633 120.35 25.7C119.533 24.8367 118.53 24.405 117.34 24.405C116.15 24.405 115.135 24.8367 114.295 25.7C113.478 26.54 113.07 27.7067 113.07 29.2C113.07 30.6933 113.478 31.8833 114.295 32.77C115.135 33.6333 116.15 34.065 117.34 34.065C118.53 34.065 119.533 33.6333 120.35 32.77C121.19 31.9067 121.61 30.7283 121.61 29.235ZM151.21 19.47V39H145.225V36.34C144.618 37.2033 143.79 37.9033 142.74 38.44C141.713 38.9533 140.57 39.21 139.31 39.21C137.817 39.21 136.498 38.8833 135.355 38.23C134.212 37.5533 133.325 36.585 132.695 35.325C132.065 34.065 131.75 32.5833 131.75 30.88V19.47H137.7V30.075C137.7 31.3817 138.038 32.3967 138.715 33.12C139.392 33.8433 140.302 34.205 141.445 34.205C142.612 34.205 143.533 33.8433 144.21 33.12C144.887 32.3967 145.225 31.3817 145.225 30.075V19.47H151.21ZM166.394 33.925V39H163.349C161.179 39 159.487 38.475 158.274 37.425C157.061 36.3517 156.454 34.6133 156.454 32.21V24.44H154.074V19.47H156.454V14.71H162.439V19.47H166.359V24.44H162.439V32.28C162.439 32.8633 162.579 33.2833 162.859 33.54C163.139 33.7967 163.606 33.925 164.259 33.925H166.394ZM178.618 39.28C176.704 39.28 174.978 38.8717 173.438 38.055C171.921 37.2383 170.719 36.0717 169.833 34.555C168.969 33.0383 168.538 31.265 168.538 29.235C168.538 27.2283 168.981 25.4667 169.868 23.95C170.754 22.41 171.968 21.2317 173.508 20.415C175.048 19.5983 176.774 19.19 178.688 19.19C180.601 19.19 182.328 19.5983 183.868 20.415C185.408 21.2317 186.621 22.41 187.508 23.95C188.394 25.4667 188.838 27.2283 188.838 29.235C188.838 31.2417 188.383 33.015 187.473 34.555C186.586 36.0717 185.361 37.2383 183.798 38.055C182.258 38.8717 180.531 39.28 178.618 39.28ZM178.618 34.1C179.761 34.1 180.729 33.68 181.523 32.84C182.339 32 182.748 30.7983 182.748 29.235C182.748 27.6717 182.351 26.47 181.558 25.63C180.788 24.79 179.831 24.37 178.688 24.37C177.521 24.37 176.553 24.79 175.783 25.63C175.013 26.4467 174.628 27.6483 174.628 29.235C174.628 30.7983 175.001 32 175.748 32.84C176.518 33.68 177.474 34.1 178.618 34.1Z" fill="#E3B21C" fill-opacity="0.99"/>
<path d="M98.8298 27.6155C98.4773 21.9433 97.8965 20.8386 97.6772 20.4231C97.1728 19.4629 96.3659 18.8355 95.5119 18.1772C95.4636 18.1406 95.4219 18.0884 95.3901 18.0247C95.3583 17.9611 95.3372 17.8877 95.3286 17.8104C95.3199 17.7331 95.324 17.6539 95.3403 17.5792C95.3567 17.5045 95.3849 17.4363 95.4228 17.3799C95.5809 17.15 95.7025 16.8738 95.7791 16.5701C95.8556 16.2665 95.8854 15.9428 95.8664 15.6211C95.8296 15.0506 95.6445 14.5209 95.3479 14.1368C95.0514 13.7528 94.6649 13.5426 94.2652 13.5478H92.7375C92.672 13.5484 92.6066 13.5545 92.5417 13.5661C92.4971 13.5383 92.4509 13.5163 92.4036 13.5001C91.4987 10.7587 90.2599 7.00526 87.6921 5.17345C83.8836 2.45873 76.8678 2.31836 75.4968 2.31836C74.1257 2.31836 67.1099 2.45873 63.3063 5.16924C60.7385 7.00105 59.4997 10.7545 58.5948 13.4959L58.587 13.5183C58.5419 13.5274 58.4975 13.5434 58.4548 13.5661C58.3898 13.5545 58.3244 13.5484 58.2589 13.5478H56.7283C56.3286 13.5426 55.9422 13.7528 55.6456 14.1368C55.349 14.5209 55.1639 15.0506 55.1271 15.6211C55.1097 15.942 55.1409 16.2646 55.2184 16.5666C55.296 16.8687 55.4182 17.1433 55.5766 17.3715C55.6145 17.4279 55.6427 17.4961 55.6591 17.5708C55.6754 17.6455 55.6794 17.7247 55.6708 17.802C55.6622 17.8793 55.6411 17.9527 55.6093 18.0163C55.5775 18.08 55.5358 18.1322 55.4875 18.1688C54.6335 18.8313 53.8226 19.4587 53.3222 20.4146C53.1029 20.8357 52.5231 21.9348 52.1696 27.6071C51.9737 30.7991 51.9443 34.1034 52.0981 36.2313C52.4203 40.653 53.0245 43.3256 53.05 43.4365C53.1427 43.84 53.3134 44.1976 53.5422 44.4676C53.771 44.7377 54.0486 44.9092 54.3427 44.9623V44.9903C54.3427 45.586 54.5077 46.1572 54.8016 46.5784C55.0954 46.9996 55.494 47.2362 55.9096 47.2362H61.3937C61.8093 47.2362 62.2078 46.9996 62.5017 46.5784C62.7955 46.1572 62.9606 45.586 62.9606 44.9903C63.8038 44.9903 64.3904 44.7742 65.0123 44.544C65.9101 44.1972 66.8278 43.9665 67.7543 43.8548C70.7422 43.4463 73.7134 43.3059 75.4968 43.3059C77.2438 43.3059 80.3463 43.4463 83.3391 43.8548C84.2693 43.9668 85.1906 44.1984 86.0919 44.5468C86.6873 44.7657 87.2524 44.9679 88.0349 44.9889C88.0349 45.5846 88.2 46.1558 88.4938 46.577C88.7877 46.9982 89.1862 47.2348 89.6018 47.2348H95.0859C95.5015 47.2348 95.9 46.9982 96.1939 46.577C96.4877 46.1558 96.6528 45.5846 96.6528 44.9889V44.9721C96.9476 44.9201 97.226 44.749 97.4556 44.4789C97.6851 44.2087 97.8564 43.8506 97.9494 43.4463C97.9749 43.3354 98.5791 40.6628 98.9013 36.2412C99.0551 34.1118 99.0276 30.8131 98.8298 27.6155ZM61.427 15.4161C62.2104 13.0299 63.1065 10.3292 64.7018 9.19079C67.0071 7.54568 71.7852 6.80453 75.4968 6.80453C79.2083 6.80453 83.9864 7.54006 86.2917 9.19079C87.887 10.3292 88.7791 13.0313 89.5665 15.4161L89.6644 15.7207C89.7217 15.8941 89.747 16.0857 89.738 16.2771C89.7289 16.4685 89.6858 16.6534 89.6127 16.8141C89.5397 16.9749 89.4391 17.1061 89.3206 17.1953C89.2021 17.2845 89.0696 17.3287 88.9358 17.3237C85.6816 17.1974 78.8264 16.7931 75.4968 16.7931C72.1671 16.7931 65.3119 17.2072 62.0528 17.3336C61.919 17.3386 61.7865 17.2944 61.668 17.2052C61.5495 17.116 61.4489 16.9847 61.3759 16.824C61.3028 16.6632 61.2597 16.4783 61.2506 16.2869C61.2416 16.0955 61.2669 15.904 61.3242 15.7306C61.3584 15.6267 61.3947 15.5214 61.427 15.4161V15.4161ZM62.5953 26.5937C60.9107 26.8843 59.2153 27.0277 57.5186 27.0232C56.4805 27.0232 55.4101 26.6021 55.2113 25.277C55.0752 24.3857 55.0899 23.8845 55.1633 23.3806C55.225 22.9525 55.323 22.6409 55.8126 22.5314C57.0857 22.2507 57.7977 22.603 59.8816 23.4831C61.2635 24.0656 62.2604 24.8419 62.8284 25.4567C63.1134 25.7599 62.9616 26.5515 62.5953 26.5937V26.5937ZM84.2753 38.1039C82.9865 38.3144 80.409 38.2372 75.5261 38.2372C70.6433 38.2372 68.0667 38.3144 66.778 38.1039C65.448 37.8919 63.7529 36.0896 64.9104 34.4838C65.6811 33.4254 67.4791 32.6337 69.8736 32.1887C72.268 31.7438 73.2816 31.515 75.5163 31.515C77.7511 31.515 78.6619 31.6553 81.1591 32.1901C83.6564 32.7249 85.5435 33.5265 86.1223 34.4852C87.178 36.2033 85.6042 37.8807 84.2753 38.1123V38.1039ZM95.7822 25.2756C95.5863 26.6063 94.5091 27.0218 93.4749 27.0218C91.7457 27.0224 90.0179 26.8789 88.3003 26.5923C88.0006 26.5515 87.8615 25.7978 88.1651 25.4553C88.7243 24.825 89.732 24.0642 91.1119 23.4817C93.1958 22.6016 94.3975 22.2493 95.4296 22.5426C95.6813 22.6142 95.8145 23.0016 95.8302 23.2445C95.8993 23.9206 95.883 24.6091 95.7822 25.277V25.2756Z" fill="#E3B21C" fill-opacity="0.99"/>
</svg>
