<svg width="48" height="48" viewBox="0 0 48 48" fill="none" xmlns="http://www.w3.org/2000/svg">
<path d="M30.9 33L21.45 23.55C20.7 24.15 19.8375 24.625 18.8625 24.975C17.8875 25.325 16.85 25.5 15.75 25.5C13.025 25.5 10.719 24.5565 8.832 22.6695C6.944 20.7815 6 18.475 6 15.75C6 13.025 6.944 10.7185 8.832 8.8305C10.719 6.9435 13.025 6 15.75 6C18.475 6 20.7815 6.9435 22.6695 8.8305C24.5565 10.7185 25.5 13.025 25.5 15.75C25.5 16.85 25.325 17.8875 24.975 18.8625C24.625 19.8375 24.15 20.7 23.55 21.45L33 30.9L30.9 33ZM15.75 22.5C17.625 22.5 19.219 21.844 20.532 20.532C21.844 19.219 22.5 17.625 22.5 15.75C22.5 13.875 21.844 12.281 20.532 10.968C19.219 9.656 17.625 9 15.75 9C13.875 9 12.281 9.656 10.968 10.968C9.656 12.281 9 13.875 9 15.75C9 17.625 9.656 19.219 10.968 20.532C12.281 21.844 13.875 22.5 15.75 22.5Z" fill="#005058"/>
</svg>
